<?xml version="1.0" encoding="utf-8"?>
<!-- Generator: Adobe Illustrator 23.0.1, SVG Export Plug-In . SVG Version: 6.00 Build 0)  -->
<svg version="1.1" id="Layer_1" xmlns="http://www.w3.org/2000/svg" xmlns:xlink="http://www.w3.org/1999/xlink" x="0px" y="0px"
	 viewBox="0 0 86.7 87.2" style="enable-background:new 0 0 86.7 87.2;" xml:space="preserve">
<path d="M85.4,85.9c0.8-0.8,1.3-1.9,1.3-3c0-1.1-0.4-2.2-1.3-3L67.4,61.8c-1.7-1.7-4.4-1.7-6.1,0c-1.7,1.7-1.7,4.4,0,6.1l18.1,18.1
	C81,87.6,83.8,87.6,85.4,85.9L85.4,85.9z M15.8,52C11,47.2,8.4,40.9,8.4,34.1c0-6.7,2.6-13.1,7.4-17.8c4.8-4.8,11.1-7.4,17.8-7.4
	c6.7,0,13.1,2.6,17.8,7.4c4.8,4.8,7.4,11.1,7.4,17.8S56.3,47.2,51.5,52C41.6,61.8,25.6,61.8,15.8,52L15.8,52z M57.6,58.1
	c6.4-6.4,9.9-14.9,9.9-23.9c0-9-3.5-17.5-9.9-23.9c-6.4-6.4-14.9-9.9-23.9-9.9S16.1,3.8,9.7,10.2c-6.4,6.4-9.9,14.9-9.9,23.9
	c0,9,3.5,17.5,9.9,23.9C22.9,71.2,44.4,71.3,57.6,58.1L57.6,58.1z"/>
</svg>
