<?xml version="1.0" encoding="utf-8"?>
<!-- Generator: Adobe Illustrator 24.0.3, SVG Export Plug-In . SVG Version: 6.00 Build 0)  -->
<svg version="1.1" id="Layer_2_1_" xmlns="http://www.w3.org/2000/svg" xmlns:xlink="http://www.w3.org/1999/xlink" x="0px" y="0px"
	 viewBox="0 0 416.5 82.2" style="enable-background:new 0 0 416.5 82.2;" xml:space="preserve">
<style type="text/css">
	.st0{fill:#3C3C3B;}
	.st1{fill:#C6C6C5;}
	.st2{fill:#95C11F;}
	.st3{fill:#009CDE;}
	.st4{fill:#FBBA00;}
</style>
<g>
	<path class="st0" d="M283.4,18.1h6.9l7,23.8c0.5,1.7,0.8,3.6,0.9,3.6h0.1c0,0,0.3-1.9,0.9-3.6l7.4-23.7h6l7.3,23.7
		c0.5,1.7,0.9,3.6,0.9,3.6h0.1c0,0,0.3-1.9,0.8-3.6l7.1-23.8h6.8l-10.9,33.9h-7.2l-7-21.8c-0.5-1.7-0.9-3.7-0.9-3.7h-0.1
		c0,0-0.4,1.9-0.9,3.7l-7,21.8h-7.2L283.4,18.1z"/>
	<g>
		<path class="st0" d="M178.8,17.3c9.6,0,14.7,7.1,14.7,15.9c0,0.9-0.2,2.8-0.2,2.8h-24.8c0.3,7.4,5.6,11.2,11.7,11.2
			c5.8,0,10.1-4,10.1-4l2.7,4.8c0,0-5,4.8-13.1,4.8c-10.7,0-18-7.7-18-17.8C161.9,24.3,169.2,17.3,178.8,17.3z M186.9,31.2
			c-0.2-5.8-3.8-8.7-8.2-8.7c-5,0-9,3.1-9.9,8.7H186.9z"/>
		<path class="st0" d="M146.6,4.7h6.5v37c0,4.1,1.6,4.8,3.6,4.8c0.6,0,1.1-0.1,1.1-0.1v5.8c0,0-1,0.1-2.1,0.1c-3.7,0-9.1-1-9.1-9.5
			V4.7z"/>
		<path class="st0" d="M3.2,43.3c0,0,3.8,4,9.7,4c2.8,0,5.6-1.5,5.6-4.2c0-6.2-17.4-5-17.4-16c0-6.2,5.5-9.7,12.3-9.7
			c7.4,0,10.9,3.8,10.9,3.8L21.7,26c0,0-3-3-8.4-3c-2.8,0-5.6,1.2-5.6,4.2c0,6.1,17.4,4.8,17.4,15.9c0,5.6-4.8,9.9-12.3,9.9
			c-8.3,0-12.9-5-12.9-5L3.2,43.3z"/>
		<path class="st0" d="M48,18.1h6.3v4.5c0,1.3-0.1,2.5-0.1,2.5h0.1c1.6-4,6.4-7.8,11.7-7.8c5.7,0,9.1,2.6,10.2,7.7h0.1
			c1.9-4.1,6.6-7.7,12.1-7.7c7.6,0,11.2,4.4,11.2,13v21.7H93V31.8c0-4.8-0.9-8.5-6-8.5c-4.8,0-8.3,4-9.5,8.7c-0.3,1.4-0.5,3-0.5,4.7
			v15.5h-6.5V31.8c0-4.4-0.7-8.5-5.9-8.5c-5,0-8.5,4.1-9.7,8.9c-0.3,1.3-0.4,2.9-0.4,4.4v15.5H48V18.1z"/>
		<path class="st0" d="M107.6,18.1h6V21c0,1.3-0.1,2.5-0.1,2.5h0.1c0,0,2.9-6.2,11.4-6.2c9.1,0,14.9,7.2,14.9,17.8
			c0,10.8-6.5,17.8-15.4,17.8c-7.4,0-10.4-5.6-10.4-5.6H114c0,0,0.1,1.2,0.1,3v15.2h-6.5V18.1z M123.5,47.3c5.4,0,9.8-4.4,9.8-12.1
			c0-7.4-4-12.1-9.6-12.1c-5.1,0-9.8,3.6-9.8,12.2C113.9,41.3,117.2,47.3,123.5,47.3z"/>
		<g>
			<path class="st0" d="M32.6,18.1h6.5v33.9h-6.5V18.1z"/>
			<path class="st0" d="M39.9,8.8c0,2.2-1.8,4-4,4c-2.2,0-4-1.8-4-4c0-2.2,1.8-4,4-4C38.1,4.7,39.9,6.5,39.9,8.8z"/>
		</g>
		<path class="st0" d="M265.4,17.3c9.6,0,14.7,7.1,14.7,15.9c0,0.9-0.2,2.8-0.2,2.8h-24.8c0.3,7.4,5.6,11.2,11.7,11.2
			c5.8,0,10.1-4,10.1-4l2.7,4.8c0,0-5,4.8-13.1,4.8c-10.7,0-18-7.7-18-17.8C248.4,24.3,255.7,17.3,265.4,17.3z M273.4,31.2
			c-0.2-5.8-3.8-8.7-8.2-8.7c-5,0-9,3.1-9.9,8.7H273.4z"/>
		<path class="st0" d="M196.9,18.1h6.9l8.2,22.9c0.7,1.9,1.1,4.6,1.1,4.6h0.1c0.1,0,0.5-2.7,1.2-4.6l8.3-22.9h6.8l-12.5,33.9h-7.5
			L196.9,18.1z"/>
		<path class="st0" d="M235.7,18.1h6.5v33.9h-6.5V18.1z"/>
		<circle class="st0" cx="239" cy="8.8" r="4"/>
	</g>
</g>
<g>
	<g>
		<path class="st1" d="M413.5,52.7c1.6,0,3,1.3,3,3c0,1.7-1.3,3-3,3c-1.6,0-2.9-1.3-2.9-3C410.6,54,411.9,52.7,413.5,52.7z
			 M413.5,58.2c1.3,0,2.4-1.1,2.4-2.5c0-1.4-1-2.5-2.4-2.5c-1.3,0-2.3,1.1-2.3,2.5C411.2,57.1,412.2,58.2,413.5,58.2z M412.5,54.1
			h1.2c0.6,0,1,0.4,1,0.9c0,0.5-0.3,0.8-0.6,0.8v0c0,0,0,0,0.1,0.2l0.6,1.1h-0.6l-0.6-1.2h-0.5v1.2h-0.6V54.1z M413.6,55.6
			c0.3,0,0.5-0.2,0.5-0.5c0-0.3-0.2-0.5-0.5-0.5h-0.5v1H413.6z"/>
	</g>
</g>
<path class="st2" d="M387.8,36.7c-1.8,8.3-6.1,15.8-12.4,21.6c9.6,7,22.3,9.1,33.9,5.3C407,51.7,398.9,41.6,387.8,36.7z"/>
<path class="st3" d="M335.7,63.6c11.6,3.8,24.3,1.7,33.9-5.3c-6.2-5.7-10.5-13.3-12.4-21.6C346.2,41.7,338.1,51.7,335.7,63.6z"/>
<path class="st4" d="M372.5-0.2C364.5,7,360,17.1,360,27.9c0,1.2,0.1,2.5,0.2,3.8c8.1-2.6,16.6-2.6,24.7,0c0.2-1.3,0.2-2.6,0.2-3.8
	C385.1,17.1,380.6,7,372.5-0.2z"/>
<path class="st1" d="M361.5,35.8c1.6,7.5,5.5,14.2,11.1,19.3c5.6-5.1,9.4-11.9,11.1-19.3C376.3,33.5,368.7,33.5,361.5,35.8z"/>
</svg>
