<?xml version="1.0" encoding="utf-8"?>
<!-- Generator: Adobe Illustrator 24.0.3, SVG Export Plug-In . SVG Version: 6.00 Build 0)  -->
<svg version="1.1" id="Layer_2_1_" xmlns="http://www.w3.org/2000/svg" xmlns:xlink="http://www.w3.org/1999/xlink" x="0px" y="0px"
	 viewBox="0 0 493.3 405.3" style="enable-background:new 0 0 493.3 405.3;" xml:space="preserve">
<style type="text/css">
	.st0{fill:#C6C6C5;}
	.st1{fill:#95C11F;}
	.st2{fill:#009CDE;}
	.st3{fill:#FBBA00;}
</style>
<g>
	<g>
		<path class="st0" d="M475.2,324.8c10,0,18.1,8.2,18.1,18.4c0,10.2-8,18.4-18.1,18.4c-10,0-17.9-8.2-17.9-18.4
			C457.3,333,465.2,324.8,475.2,324.8z M475.2,358.2c8.1,0,14.4-6.6,14.4-15c0-8.4-6.3-15-14.4-15c-8,0-14.2,6.6-14.2,15
			C461,351.7,467.2,358.2,475.2,358.2z M469,333.7h7.3c3.6,0,6,2.3,6,5.8c0,2.9-1.9,4.7-3.5,5.1v0.1c0,0,0.2,0.2,0.7,1.1l3.6,7h-3.9
			l-3.5-7.4h-3.1v7.4H469V333.7z M475.6,342.7c1.9,0,3.1-1.2,3.1-3.2c0-2-1.2-3.1-3.1-3.1h-3v6.3H475.6z"/>
	</g>
</g>
<path class="st1" d="M317.9,227.4c-11,50.7-37.3,96.7-75.4,131.8c58.6,42.7,136.4,55.9,207.3,32.4
	C435.1,318.8,385.7,257.5,317.9,227.4z"/>
<path class="st2" d="M0,391.6c70.9,23.5,148.7,10.3,207.3-32.4c-38.1-35-64.4-81-75.4-131.7C64.1,257.5,14.7,318.8,0,391.6z"/>
<path class="st3" d="M224.9,2.2c-48.9,43.7-76.7,105.6-76.7,171.3c0,7.4,0.4,15,1.4,23.2c49.3-15.6,101.3-15.6,150.7,0
	c0.9-8.2,1.4-15.8,1.4-23.2C301.6,107.8,273.8,45.9,224.9,2.2z"/>
<path class="st0" d="M157.4,221.7c9.9,45.5,33.4,86.7,67.5,118.1c34.1-31.4,57.7-72.6,67.5-118.1
	C248.1,207.7,201.6,207.7,157.4,221.7z"/>
</svg>
